<!-- <?xml version="1.0" encoding="UTF-8" standalone="no"?>
<svg
   width="308.7612359841165"
   height="304.915625"
   viewBox="0 0 106.00782394174519 104.68749999999999"
   class="css-1j8o68f"
   version="1.1"
   id="svg23"
   sodipodi:docname="logo.svg"
   xmlns:inkscape="http://www.inkscape.org/namespaces/inkscape"
   xmlns:sodipodi="http://sodipodi.sourceforge.net/DTD/sodipodi-0.dtd"
   xmlns="http://www.w3.org/2000/svg"
   xmlns:svg="http://www.w3.org/2000/svg">
  <sodipodi:namedview
     id="namedview25"
     pagecolor="#ffffff"
     bordercolor="#000000"
     borderopacity="0.25"
     inkscape:showpageshadow="2"
     inkscape:pageopacity="0.0"
     inkscape:pagecheckerboard="0"
     inkscape:deskcolor="#d1d1d1" />
  <defs
     id="SvgjsDefs2684" />
  <g
     id="SvgjsG2685"
     featurekey="rootContainer"
     transform="matrix(0.9820592540669653,0,0,0.9820592540669653,-0.054560523427421584,0)"
     fill="#ff4a3f">
    <g
       id="g17">
      <path
         d="M19.8 15.3h.5l-.4-.2zm.5.1zm.8-.7c0 .1 0 .1.1.1l.4-.3c-.2-.1-.3-.1-.5.2zm.4-.2zm-4.1 2.3zm-.2.6l.3-.2c.1-.1.1-.2.1-.2h-.2l-.2.4c-.1-.1-.1 0 0 0zm2.2-2.9h-.1l-.2.2h.3zm-2.1 2.4l.6-.5c.1-.1.1-.2.1-.3h-.3l-1.2 1.1-.2.4.7-.6zm-1.1.8z"
         id="path3" />
      <path
         d="M9.7 25v-.2a1.7 1.7 0 0 1 .7-1.1l.9-.6.5-.6.7-.7.4-.4.4-.3a1.9 1.9 0 0 0 .8-.9l.4-.5a5.9 5.9 0 0 0 1-1.3l.2-.3.3-.2-.2-.3.4-.5c.8-.6 1.4-1.4 2.2-2l.3-.3a1.4 1.4 0 0 1 .5-.6l.8-.4h.4a1.4 1.4 0 0 0 .7-.6V13a3.5 3.5 0 0 1 1.3-1.4l.8-.5.2-.2.4-.4 1-.5h.2l-1.1.4-1.4 1c-.6.5-1.4.6-1.8 1.4h.3c-.7.2-1.4.5-1.7 1.2s-.8.6-1.2.9a.4.4 0 0 0-.3.4c-.8-.1-1.1.5-1.5.9v.8a3.9 3.9 0 0 0-1.6 1.4c-1.6.1-1.6 2.1-3 2.5h-.1a.2.2 0 0 0 0 .2c-.3 0-.5.2-.4.5l-.2.5c-.7.4-.6 1.1-1 1.7-.8.5-1.1 1.5-1.7 2.2l.3.5.2-.2a11.6 11.6 0 0 1 .9-1.3zM53.9 3.3l.6.2h.2a2.2 2.2 0 0 0 1.4.2 4.1 4.1 0 0 1 1.9.1h1.2a1.4 1.4 0 0 1 1.2.3.1.1 0 0 1 0 .1H60a.1.1 0 0 0 0 .1h.7a1.8 1.8 0 0 1 1.3 0c.2 0 .1.1.2.2l.5.2h-.2c-.2-.4-.5-.4-.8-.4a9.7 9.7 0 0 0-4.3-.9h-.8A9.8 9.8 0 0 0 53 3h.2zm7.3 3.1zM50.3 4.7zm10.9 1.7h.2-.2zM19 14.7zm32.1-10zm17.6 2.2a.9.9 0 0 0 1 .2h.6a3.1 3.1 0 0 0-1.8-.7l-.7-.2.5.3zm-3.4-1.3c0 .1.1.2.2.3h.2l.5-.3a4.2 4.2 0 0 0-1.7-.6l.7.4zm7.4 2.7l.8.5c-.2-.3-.4-.5-.8-.5z"
         id="path5" />
      <path
         d="M99 76.1l.6-1.6.6-1.5c.2-.5.6-1.8.8-2.6a1.7 1.7 0 0 1 .3-.7h.1v-1.1c.5-.1.4-.6.5-.9l.8-4.7a12.7 12.7 0 0 0 0-6.2 1.9 1.9 0 0 0-.5-1.6v-4.3c-.3-.9.3-1.9-.4-2.7L101 45a.4.4 0 0 0 0-.2l-.2-.6a.5.5 0 0 1 0-.4h.1c.3 0 .3-.5.3-.9a3 3 0 0 0-.4-1.1l-.3-.4a1.1 1.1 0 0 1-.2-.7 6.7 6.7 0 0 0-.2-2v-.6c-.2-.7-.4-1.5-.6-2.2l-.2-.5a2.5 2.5 0 0 1-.4-1.1 2.5 2.5 0 0 0-.3-.8l-.6-1a.8.8 0 0 0-.6-.2h-.1V32h-.2v-.8H97V31a.4.4 0 0 0 0-.1v-.2c.1-.2.1-.3-.1-.5a1.8 1.8 0 0 1-.4-.6l-.2-.6a2.9 2.9 0 0 0-.7-1.2 2.2 2.2 0 0 1-.5-.7l-.7-1.6a4.3 4.3 0 0 0-.6-1l-.6-.8a2.4 2.4 0 0 1-.4-.8l-.2-.3a.6.6 0 0 1-.1-.5.5.5 0 0 0-.2-.4l-.4-.3v.2c.1.2 0 .3-.1.3h-.2l.3 1 .3.5.7.9h-.1l-.2-.2-.2-.2a1.3 1.3 0 0 0-1.2-1.1v-.7c-.3-1.2-1.6-1.3-2.2-2.1a1.5 1.5 0 0 0-1.1-.9l-.8-.9a11.3 11.3 0 0 0-3.1-3l-.8-.6-.4-.3c-.7-.7-1-1.8-2.2-1.8l-.8-.5-.9-.7a2.2 2.2 0 0 0-1.8-1.3 5.1 5.1 0 0 0-2.3-1.2l.2.2.5.4 1.3.7a8.5 8.5 0 0 1 2.1 1.6 6.8 6.8 0 0 0 1.5 1.1l.6.5c.1.1.2.2.1.3H81l-.9-.3a5.6 5.6 0 0 1-2-.8l-1.2-.6-1.3-.7h-.2c-.3-.1-.4-.4-.8-.5l-.8-.2-2.5-.5a2.6 2.6 0 0 1-.9-.7 1.7 1.7 0 0 1-.9-.3l-1-.4a18.1 18.1 0 0 1-2.8-.8l-.6-.2-1-.3h-.5l-.2-.3v-.1h-1.6l-.6-.5-.4.2-.4.2h-.2l-.9-.5c-.6.6-1.1-.2-1.6-.1l-1-.3a1.2 1.2 0 0 1-1.2 0h-1.2a.6.6 0 0 1-.5-.6l.3-.2h.6a.7.7 0 0 1 .1.3c0 .2.2.2.5.2h.2l-.4-.6a1.1 1.1 0 0 0-1-.2l-1 .3H53c.3.2.2.3.2.5h-1.6l-.4-.2-.8-.4h-.1l-.7-.2h-2.3l.4-.2.8-.2h.3l1.7-.3 1.1-.2.6-.2h-1.1a8.4 8.4 0 0 0-3.4 0h-1.3L43 3.6c-1.4.1-2.8 0-3.9 1.2-2.5-.4-4.7.7-6.9 1.8l-2.2.9a6.7 6.7 0 0 0-3.7 1.8h.3l.5-.3.8-.5 1.3-.6 1-.2a6 6 0 0 1 2-.9l.9-.3h.2c.1.2.5 0 .7 0h.2c.1 0 .1.1 0 .1l-.6.4 1-.3.8-.2-1.3.7-1.3.4a1 1 0 0 0-.6.5l-.3.5h.3l.4-.2a1.4 1.4 0 0 1 .9-.6l1.5-.5h.5a.1.1 0 0 1 .1.2c-.2.2-.6.3-.8.5h.2l-3.2.9-3.8 1.6a5.2 5.2 0 0 1-2.3 1.2 6.6 6.6 0 0 1-1.7 1.1l-.8.2a1.5 1.5 0 0 1-1.3.9l-.3.5a3.7 3.7 0 0 1-1.2 1.1h-.1v-.1l-.2.2-.2.2-1 .2h-.5l-.4.5c-.1.1-.1.2 0 .2h.1c-.6.6-1 1.4-1.8 1.7L15 19.9c-.6 1.2-1.8 1.6-2.6 2.6s-1.4 3.9-3.9 4.3l-.2-.3-.2.5a2.7 2.7 0 0 1-.4.8 16.9 16.9 0 0 0-1.2 2.1.8.8 0 0 0-.1.5 1.4 1.4 0 0 1-.2.8l-.5 1.1h.2c.3 0 .3.3.4.6l.8-1.1a2.2 2.2 0 0 1 .6-.7 2 2 0 0 0 .9-.9l.3-.3.4-.4.6-1.1h.2c.1.1.1.1.2 0l.2-.4h.5v.8l.5-.5a.5.5 0 0 0 0-.5.4.4 0 0 1 .1-.3 1.5 1.5 0 0 0 .3-.5 1.3 1.3 0 0 1 .8-.9l.3-.2.3-.3a2.4 2.4 0 0 0 .8-1l-.2-.3c0-.1.1-.3.2-.4h.5l.6-.8.6-.3h.2a48.8 48.8 0 0 0-5.5 7.2h-.1.1a48.4 48.4 0 0 0-5.3 11.2h-.5l-.5-.4c-.2-.2-.1-.7-.4-.9h.1c.3-.5-.1-1.2.3-1.7s.1-1.4-.9-1.2-1.5.5-1.3 1.5-1 1.8-1.1 2.9-.5.5-.3.9v3.9c.1.8-.5 1.8.8 2.1l1.3.9c.1.5-.5 1.6.9 1.3a49.2 49.2 0 0 0-.3 5c0 1.1.1 2.2.1 3.3v-.4c-.1-.4-.1-.8-.2-1.3l-.3.3v-.2h-.5c0 .5-.1.8-.4.9a.9.9 0 0 0-.1.5c0 .1.1.3.2.2s.4.2.7.4-.2.3-.4.2-.2.1-.2.3v.3l.5 1.5c0 .3-.1.6-.1.9a1.7 1.7 0 0 0 .2.8h-.3v-.3l-.7-.2v-.6a1.5 1.5 0 0 0 0-.5 14.6 14.6 0 0 1-.3-1.8 16.6 16.6 0 0 1-.2-3.5.9.9 0 0 1 .1-.5v.2a2.9 2.9 0 0 1 .1.5.8.8 0 0 0 .1.4c.1.2.2.4.4.4s.1-.1.1-.2a2.1 2.1 0 0 0-.1-.5 4.2 4.2 0 0 1-.3-1.3 1.5 1.5 0 0 0-.3-.7 1.6 1.6 0 0 1-.2-.9v-.8c0-.3.1-.6.1-.9a.5.5 0 0 0-.1-.4h-.1c-.8.4-.7.2-1 1.6V55c0 .7-.1 1.4 0 2.1a10.8 10.8 0 0 0 .2 2.3 1.8 1.8 0 0 1 0 .5 3.1 3.1 0 0 0 .1.9 5.9 5.9 0 0 1 .1 1.3 3.9 3.9 0 0 0 .2 1.7 1.2 1.2 0 0 1 0 .4 2.1 2.1 0 0 0 .1.8 4.9 4.9 0 0 1 .2.9 14 14 0 0 0 .5 2.2 5 5 0 0 1 .2 1 1.7 1.7 0 0 0 .3.7 2.9 2.9 0 0 1 .5 1.2 8.5 8.5 0 0 0 .3 1l.4 1.4a5.4 5.4 0 0 0 .6 1.5 8.5 8.5 0 0 1 .8 2.1l.2.5a2.1 2.1 0 0 1 .5 1 2.1 2.1 0 0 0 .4.8 1 1 0 0 1 .2.5c.1.3.2.4.4.3h.1v.9l.5 1 .5 1 1.1 1.2.4.4c.3.3.7.5.9 1l.4.3a.7.7 0 0 1 .3.5l.2.7a3.3 3.3 0 0 0 .6.9l.4.2h.3a.2.2 0 0 1 .1.3 2.5 2.5 0 0 0 0 .5.9.9 0 0 0 .4.5h.2c.4-.1.8.2 1.2.7h.1c0-.1.1-.1 0-.2v-.2c0-.1.1-.2.2-.1a.7.7 0 0 1 .3.6v.2a4.3 4.3 0 0 0 .4 1.2c.5.3.5.3.5.1s0-.2.2-.2h.4l.2.3.8.5c.7.8 1.8.7 2.6 1.2l1.7 1.7h.2a2.9 2.9 0 0 0 1.6 1.6 1.3 1.3 0 0 0 1 .6c0 .5.6.6 1.1.7a1.2 1.2 0 0 0 .8.4h.2a1.7 1.7 0 0 0 1.5.5l.9.8 2.4.9v.2c.5 1.1 1.7.7 2.5 1l1.1.4h.4c1.2.3 2.4.9 3.7.5a.7.7 0 0 0 0 .4c1.1.7 2.4 0 3.6.4a2.9 2.9 0 0 0 1.7.1h.1l.8.2h.3l.9.2h.3a.5.5 0 0 1 .5 0 7.9 7.9 0 0 0 1.5.4h.6a.7.7 0 0 1 .7 0h3.9a5 5 0 0 0 1.6-.1h1l.5-.2H60l.6-.2.5-.3h2.2v.6H62l-1.2.2c-.4.1-.7 0-1 .1a2.4 2.4 0 0 1-1 .2l-1.3.3h-.4a3.1 3.1 0 0 0-1.5.1h-1.8a1.1 1.1 0 0 1-.9 0h-4.5a1.3 1.3 0 0 0-1.1.3H47l-.3-.2v-.3h-1.2a4.1 4.1 0 0 0-1.3-.3h-2.5l-.7-.2-.5-.2-2.1-.4h-.5l-.5-.2-2.1-.7-1.4-.4h-2.2c-.1 0-.1.1-.1.2h.2c1.3.5 2.6.9 3.9 1.5h.3l.9.2 1.4.4h1.3l.6.2.7.3 1.7.3 1.1.2 1.1.2h.8l.8.2h3.1l1 .2h2.3l1-.2H56c.4 0 .6-.1.7-.3h1a1 1 0 0 0 .8-.3c-.1.1 0 .1.1.2h.4v-.2c0-.1 0-.1.2-.2s.6-.1.7.1h.4l.3-.2c.2 0 .2 0 .2.1h.7l.5-.2.8-.4c.1.3.4.4 1.3.2l1.3-.4h1.2c.9-.1 2 0 2.7-.7h.2l.4-.3 1.1-.3a6.1 6.1 0 0 0 2-.8l.4-.2h.1l.9-.6.4-.2.5-.2h.4c.4-.1.4-.1.5-.4s0-.1-.2-.1h-.1l.4-.5h.2c.3-.1.5-.2.7-.1h.2a1.3 1.3 0 0 0 .9-.9c.3-.4 1.1-.2 1.3-.8l4.3-3.1c1.1-.1 1.4-1.1 2.2-1.7s2.3-1.1 3-2.2l.9-.4h.1a1 1 0 0 0 1.2-.7v.4c.8-.4 1.8.3 2.6-.5s0-2.7 1-3.8l.7-.5a12.1 12.1 0 0 0 1.5-4.2l.2-.2c0-.3 0-.7.4-.9a.9.9 0 0 0 .2-1.2h-.2a.3.3 0 0 0 0-.3c.7 0 .8-.7 1.2-1V77a.5.5 0 0 1 0-.2 3.8 3.8 0 0 0 .1-.7zM5.9 32.2z"
         id="path7" />
      <path
         d="M26.4 9.3l-.3.2-.4.3.5-.2zm6.1-2h.1l.3-.2h-.4zm-2.6 1l-.1.1h.1v-.1zm-1.5 1.4zm1.3-.2zm-6.3 3.1zM9.2 26.2l-.4.4H9a.4.4 0 0 0 .2-.4zm3-3.5a2.1 2.1 0 0 0 .3-.6 1.5 1.5 0 0 0-.5.5c-.1.1-.1.2 0 .2zM11 24.2V24c-.2 0-.5.3-.8.3v.2c.3.3.4.2.8-.3zm3 66.2zM73.9 9.2h.1l-.5-.3zm-2.5-1.4c.5-.1.8.4 1.2.5h.1l-.3-.2-1-.5-1.1-.5.3.2zM52.8 3.1zm11.7 2h-.1l-1.2-.2h.5zm2 .7l1.3.4a3.3 3.3 0 0 0-1.3-.4zm-9 0a1 1 0 0 0 .2-.5h-.5l-.3.3.4.3zm9 1.6zM49.9 4.2zm2.9.7zM48.5 4zm13.8 2.1a.5.5 0 0 0 0 .1zm44.8 52.3h-.3V58h.3c.1 0 .2-.3.1-.4s-.1-.7-.3-.8a.3.3 0 0 1-.2-.3l.2-.4a.4.4 0 0 0 0-.2h-.2l-.2-.3c-.1.3-.2.6-.4.7a.5.5 0 0 0 0 .2c0 .1 0 .2-.1.2h-.1a1.1 1.1 0 0 1-.1.3 2.3 2.3 0 0 0-.4.9.4.4 0 0 0 .1.4h.1a1.7 1.7 0 0 0-.1.8v.4a1.8 1.8 0 0 1-.1.5h-.1l-.4.7v.6a1.5 1.5 0 0 1-.3 1.1h-.2l-.2-.2a.9.9 0 0 1-.1-.8 6.5 6.5 0 0 0 .1-1.7c0-.1-.1-.2-.1-.2a.5.5 0 0 0-.1.3v.6c0 .2-.1.6-.3.7s-.1.2-.1.3l-.2.6.3.5c-.2.2-.4.1-.5-.1v1h.3v.4a4.2 4.2 0 0 0-.3 1.4 3.3 3.3 0 0 0 0 .4 4 4 0 0 1-.2 1.3 2 2 0 0 0 0 .6l-.3.7a3.2 3.2 0 0 1-.3.7l-.3.6-.9 2.7c.3.9-.4 1.5-.8 2.1a2.7 2.7 0 0 1-.8 2.3v.4c0 .1.1.2.3.1l.4-.3.2-.4h.2c.1.1.2.1.4-.1h.2a.5.5 0 0 1 .1.6 2.9 2.9 0 0 0-.1.8c0 .1 0 .2.1.2h.2c.1.1.2 0 .3-.3l.2-.5h.3c.4-.1.4-.1.6-.6l.5-.9.3-.6.4-1a1.6 1.6 0 0 1 .3-1 .6.6 0 0 0 .1-.6c0-.2 0-.3.2-.6l.3-.4.5-1a4.7 4.7 0 0 1 .2-.9 3 3 0 0 0 .3-1.3 3.8 3.8 0 0 1 .3-.9v-.5c-.1-.2-.1-.2 0-.6s.1-.2.2-.2a.4.4 0 0 1 .1.3l.2-.5a2.3 2.3 0 0 0 .2-.9v-.3c0-.1 0-.3-.1-.3v.4c-.2 0-.3.2-.5.3a6.4 6.4 0 0 0 .1-.8l.4-.2a.7.7 0 0 0 .2-.6 1.4 1.4 0 0 1 0-.3 4.8 4.8 0 0 0 .2-1.4v-.2l.3-1h.1a.3.3 0 0 0 .1-.3h-.1a.9.9 0 0 1 .2-.8 1.5 1.5 0 0 0-.9-1zm-1.2 7.8zm-.2-9.9zm0 0zM9.1 30.8a.3.3 0 0 0 0-.2l-.2-.2-.2.2-.3.6c0 .3-.3.6-.3.9v.2h.1zm96.3 24.8h.1a1.7 1.7 0 0 0 .2-1.2.5.5 0 0 1 .2-.5h.1v-.2l-.2-.2h-.1c-.1.1-.2.3-.3.3s-.1.1-.1.3v.3a2.2 2.2 0 0 0 .1 1.2zM13.2 90.1c-.1 0 0 .2 0 .3l.8.8h.1c-.2-.3-.3-.6-.2-.7a.9.9 0 0 1-.5-.2zm.8.3zm92.3-35.7h.1a2 2 0 0 0 0-.6c-.3.1-.3.1-.3.6s.1.1.2 0z"
         id="path9" />
      <path
         d="M106.7 62a.6.6 0 0 0 .1-.5c0-.1-.1-.2-.1-.1h-.2v.2c0 .4.1.5.2.4zm.1-8.2h-.1v.6a1 1 0 0 0 .1-.6zM17.1 92.6h-.2v.2l.2.2h.2v-.2zm86.6-33.3c0-.1 0-.1-.1-.1zM9.9 86.5l.5.5-.4-.6z"
         id="path11" />
      <circle
         cx="10.5"
         cy="87.1"
         transform="rotate(-24.8 10.4 87.159)"
         id="circle13" />
      <path
         d="M9.7 30.1h-.1v.2-.2h.1zm83.2-6.6l-.2-.3h-.1zm-14.7 77.1zM5.9 32.2zm-.1.2a.3.3 0 0 0 .1-.2v.2zm1.9-4.9zM61.5 2.4zm42.8 58.2v.1-.1zM16.4 92.5h-.1c.1.1.2 0 .1-.1zm.2.7h.1l-.1-.1v.1zm73.9-71.3zm15.2 34.4zM14.6 91.7zm92.1-37zm-.8 11.4zM34.6 0z"
         id="path15" />
    </g>
  </g>
  <g
     id="SvgjsG2686"
     featurekey="nameFeature-0"
     transform="matrix(2.284354285447385,0,0,2.284354285447385,27.980055421585643,-5.609520280720151)"
     fill="#ffffff">
    <path
       d="M9.6 16.48 l-0.32 4.24 c-0.08 1.8 2.6 1.96 2.72 0.2 l0.24 -4.28 c0.12 -1.76 -2.56 -1.96 -2.64 -0.16 z M0.48 11 l0 0 c0.04 0 20.48 -0.32 20.56 -0.2 c1.28 1.12 0.96 27.8 0.12 28.56 c-0.4 0.32 -4.64 0.56 -9.2 0.6 c-0.84 -3.84 -0.2 -8.32 -0.2 -8.32 c0.24 -1.8 -2.44 -2.12 -2.64 -0.4 c0 0.04 -0.64 4.52 0.16 8.76 c-4.56 -0.04 -8.68 -0.24 -8.92 -0.64 c-0.8 -1.44 0 -28.28 0.12 -28.36 z"
       id="path20" />
  </g>
</svg> -->


<svg version="1.1" viewBox="0 0 640 400" xmlns="http://www.w3.org/2000/svg" xmlns:xlink="http://www.w3.org/1999/xlink" xmlns:svgjs="http://svgjs.dev/svgjs" matcher="0.14943595704433288"><g viewBox="0 0 640 400" matcher="0.14943595704433288"><g matcher="0.14943595704433288"><g matcher="0.14943595704433288"><g matcher="0.14943595704433288"><svg viewBox="0 0 640 400" data-background-color="#dedede" preserveAspectRatio="xMidYMid meet" height="400" width="640" xmlns="http://www.w3.org/2000/svg" xmlns:xlink="http://www.w3.org/1999/xlink"><g id="tight-bounds" transform="matrix(1,0,0,1,148.57422074112307,28.57422074112307)"><svg viewBox="0 0 342.85155851775386 342.85155851775386" height="342.85155851775386" width="342.85155851775386"><g><svg></svg></g><g><svg viewBox="0 0 342.85155851775386 342.85155851775386" height="342.85155851775386" width="342.85155851775386"><g><path d="M0 171.426c0-94.676 76.75-171.426 171.426-171.426 94.676 0 171.426 76.75 171.426 171.426 0 94.676-76.75 171.426-171.426 171.426-94.676 0-171.426-76.75-171.426-171.426zM171.426 336.814c91.342 0 165.389-74.047 165.388-165.388 0-91.342-74.047-165.389-165.388-165.389-91.342 0-165.389 74.047-165.389 165.389 0 91.342 74.047 165.389 165.389 165.388z" data-fill-palette-color="tertiary" fill="#000000" stroke="transparent"></path><ellipse rx="164.56874808852186" ry="164.56874808852186" cx="171.42577925887693" cy="171.42577925887693" fill="#000000" stroke="transparent" stroke-width="0" fill-opacity="1" data-fill-palette-color="tertiary"></ellipse></g><g transform="matrix(1,0,0,1,64.84655864529837,83.79148821495613)"><svg viewBox="0 0 213.1584412271571 175.2685820878416" height="175.2685820878416" width="213.1584412271571"><g><svg viewBox="0 0 213.1584412271571 175.2685820878416" height="175.2685820878416" width="213.1584412271571"><g><svg viewBox="0 0 213.1584412271571 175.2685820878416" height="175.2685820878416" width="213.1584412271571"><g transform="matrix(1,0,0,1,0,108.32301515707198)"><svg viewBox="0 0 213.1584412271571 66.94556693076962" height="66.94556693076962" width="213.1584412271571"><g id="textblocktransform"><svg viewBox="0 0 213.1584412271571 66.94556693076962" height="66.94556693076962" width="213.1584412271571" id="textblock"><g><svg viewBox="0 0 213.1584412271571 66.94556693076962" height="66.94556693076962" width="213.1584412271571"><g transform="matrix(1,0,0,1,0,0)"><svg width="213.1584412271571" viewBox="-1.100000023841858 -35.014705657958984 113.16500091552734 35.548038482666016" height="66.94556693076962" data-palette-color="#dedede"><path d="M6.15-18.45L6.15-18.45Q6.2-18.9 6.45-19.53 6.7-20.15 7.13-20.73 7.55-21.3 8.15-21.78 8.75-22.25 9.5-22.4L9.5-22.4Q11.1-22.7 12.15-22.2 13.2-21.7 13.75-21.05L13.75-21.05Q13.95-20.75 13.9-20.7L13.9-20.7Q13.8-20.6 13.55-20.75L13.55-20.75Q13.25-20.95 12.58-21.1 11.9-21.25 11.13-21.18 10.35-21.1 9.63-20.7 8.9-20.3 8.45-19.4L8.45-19.4Q8.05-18.55 7.9-17.65 7.75-16.75 7.73-15.98 7.7-15.2 7.75-14.65 7.8-14.1 7.8-13.9L7.8-13.9Q7.9-13.35 7.98-12.53 8.05-11.7 8.05-10.85 8.05-10 8-9.18 7.95-8.35 7.8-7.75L7.8-7.75Q7.75-7.6 7.68-7.25 7.6-6.9 7.5-6.9L7.5-6.9Q7.25-6.9 7.25-7.25 7.25-7.6 7.25-7.75L7.25-7.75Q7.15-9 6.9-10.28 6.65-11.55 6.43-12.9 6.2-14.25 6.1-15.63 6-17 6.15-18.45ZM4.4-8.55L4.4-8.55Q4.45-9.55 4.23-11.38 4-13.2 4.05-15.6L4.05-15.6Q4.1-16.85 4.3-18.18 4.5-19.5 5.25-20.8L5.25-20.8Q6.05-22.2 7.28-22.88 8.5-23.55 9.4-23.5L9.4-23.5Q9.55-23.5 9.7-23.5 9.85-23.5 9.85-23.45L9.85-23.45Q9.85-23.35 9.8-23.38 9.75-23.4 9.45-23.3L9.45-23.3Q8.55-23.05 7.85-22.48 7.15-21.9 6.65-21.15 6.15-20.4 5.85-19.6 5.55-18.8 5.5-18.15L5.5-18.15Q5.2-15.4 5.55-13.35L5.55-13.35Q5.8-11.7 5.95-9.93 6.1-8.15 5.83-6.68 5.55-5.2 4.78-4.23 4-3.25 2.4-3.15L2.4-3.15Q2.25-3.15 2.02-3.18 1.8-3.2 1.8-3.3L1.8-3.3Q1.8-3.4 2.25-3.65L2.25-3.65Q3.55-4.25 3.95-5.4 4.35-6.55 4.4-8.55ZM-0.9-2.65L-0.9-2.65Q-0.2-1.55 1.33-1.03 2.85-0.5 4.95-1.1L4.95-1.1Q6-1.4 6.8-2.15 7.6-2.9 8.13-3.83 8.65-4.75 8.93-5.75 9.2-6.75 9.25-7.6L9.25-7.6Q9.3-9 9.18-10.35 9.05-11.7 8.88-12.98 8.7-14.25 8.58-15.45 8.45-16.65 8.55-17.8L8.55-17.8Q8.65-19.05 9.25-19.7 9.85-20.35 10.73-20.53 11.6-20.7 12.55-20.4 13.5-20.1 14.3-19.45L14.3-19.45Q14.5-19.35 14.45-19.2L14.45-19.2Q14.45-19.1 14.35-19.15 14.25-19.2 14.15-19.25L14.15-19.25Q12.3-19.85 11.28-19.6 10.25-19.35 10.15-17.8L10.15-17.8Q10.05-16 10.43-13.58 10.8-11.15 10.7-8.2L10.7-8.2Q10.75-7.2 10.48-5.9 10.2-4.6 9.58-3.38 8.95-2.15 7.93-1.2 6.9-0.25 5.5 0L5.5 0Q2.85 0.4 1.28-0.3-0.3-1-1-2.45L-1-2.45Q-1.1-2.75-1.1-2.8L-1.1-2.8-1.05-2.8Q-1.05-2.8-0.9-2.65ZM1.3-2.65L1.3-2.65Q2.25-2.4 3.6-2.45L3.6-2.45Q4.05-2.5 4.7-2.7 5.35-2.9 5.4-2.8L5.4-2.8Q5.55-2.6 5.1-2.3 4.65-2 3.95-1.78 3.25-1.55 2.5-1.48 1.75-1.4 1.25-1.6L1.25-1.6Q0.3-2-0.13-2.48-0.55-2.95-0.9-3.65L-0.9-3.65-1-3.85Q-1.1-4.05-1.05-4.1L-1.05-4.1Q-1-4.15-0.9-4.1L-0.9-4.1Q-0.85-4.05-0.85-4L-0.85-4Q-0.25-3.45 0.18-3.18 0.6-2.9 1.3-2.65ZM31.1-15.8L31.1-15.8Q30.5-13.95 29.67-12.25 28.85-10.55 27.95-8.85L27.95-8.85Q27.85-8.75 27.65-8.38 27.45-8 27.3-8.1L27.3-8.1Q27.2-8.1 27.22-8.4 27.25-8.7 27.25-8.85L27.25-8.85Q27.3-9.25 27.47-10 27.65-10.75 27.87-11.58 28.1-12.4 28.32-13.18 28.55-13.95 28.7-14.4L28.7-14.4Q29.55-17.1 29.8-19.2 30.05-21.3 29.5-22.75L29.5-22.75Q29.4-23 29.5-23L29.5-23Q29.6-23 29.7-22.9 29.8-22.8 29.85-22.75L29.85-22.75Q30.4-22.15 30.75-21.23 31.1-20.3 31.25-19.33 31.4-18.35 31.35-17.4 31.3-16.45 31.1-15.8ZM32.45-19.4L32.45-19.4Q33.1-18.4 33.05-16.9 33-15.4 32.67-13.8 32.35-12.2 31.87-10.75 31.4-9.3 31.15-8.45L31.15-8.45Q30.65-6.8 29.95-5.08 29.25-3.35 28.7-2.1L28.7-2.1Q28.5-1.65 28.4-1.7L28.4-1.7Q28.25-1.75 28.22-1.93 28.2-2.1 28.2-2.2L28.2-2.2Q28.2-4.9 28.97-7.4 29.75-9.9 30.65-12.45L30.65-12.45Q31.2-14.1 31.65-15.73 32.1-17.35 32.1-19.3L32.1-19.3Q32.1-19.65 32.2-19.65L32.2-19.65Q32.25-19.65 32.3-19.58 32.35-19.5 32.45-19.4ZM22.45-3.7L22.45-3.7Q22.55-3.55 22.1-3.25 21.65-2.95 21.5-2.9L21.5-2.9Q19.3-2.1 18.07-2.85 16.85-3.6 16.32-5.1 15.8-6.6 15.8-8.43 15.8-10.25 16-11.7L16-11.7Q16.15-12.95 16.57-14.48 17-16 17.6-17.48 18.2-18.95 18.97-20.23 19.75-21.5 20.65-22.2L20.65-22.2Q20.75-22.25 20.87-22.35 21-22.45 21.1-22.45L21.1-22.45Q21.25-22.4 20.95-21.9L20.95-21.9Q20.65-21.4 20.22-20.5 19.8-19.6 19.35-18.43 18.9-17.25 18.47-15.95 18.05-14.65 17.8-13.35L17.8-13.35Q17.55-12.05 17.45-10.85 17.35-9.65 17.35-8.7 17.35-7.75 17.4-7.1 17.45-6.45 17.5-6.25L17.5-6.25Q17.85-4.7 18.82-3.98 19.8-3.25 21.45-3.55L21.45-3.55Q21.5-3.55 21.95-3.65 22.4-3.75 22.45-3.7ZM28.9 0.15L28.9 0.15Q29.1 0.35 29.1 0.45L29.1 0.45Q29.1 0.55 28.87 0.5 28.65 0.45 28.55 0.4L28.55 0.4Q28.15 0.2 27.55-0.18 26.95-0.55 26.65-1.5L26.65-1.5Q26.5-1.9 26.45-2.48 26.4-3.05 26.4-3.55 26.4-4.05 26.5-4.38 26.6-4.7 26.75-4.65L26.75-4.65Q26.85-4.6 26.97-4.2 27.1-3.8 27.2-3.35L27.2-3.35Q27.3-2.8 27.45-2.33 27.6-1.85 27.8-1.35L27.8-1.35Q28.05-0.8 28.3-0.48 28.55-0.15 28.9 0.15ZM24.3-2.6L24.3-2.6Q23.75-1.75 22.62-0.88 21.5 0 19.6 0L19.6 0Q18.1 0 17.02-0.8 15.95-1.6 15.27-2.8 14.6-4 14.32-5.43 14.05-6.85 14.05-8.15L14.05-8.15Q14.1-9.75 14.32-11.35 14.55-12.95 14.92-14.35 15.3-15.75 15.77-16.85 16.25-17.95 16.75-18.65L16.75-18.65Q16.85-18.7 16.97-18.88 17.1-19.05 17.2-18.95L17.2-18.95Q17.25-18.9 17.17-18.73 17.1-18.55 17.05-18.45L17.05-18.45Q16.6-16.95 16.17-15.28 15.75-13.6 15.5-11.9 15.25-10.2 15.25-8.55 15.25-6.9 15.55-5.5L15.55-5.5Q15.75-4.55 16.27-3.75 16.8-2.95 17.42-2.4 18.05-1.85 18.77-1.6 19.5-1.35 20.2-1.45L20.2-1.45Q21.65-1.65 22.4-2.27 23.15-2.9 23.47-3.78 23.8-4.65 23.87-5.68 23.95-6.7 24.1-7.75L24.1-7.75Q23.85-7.05 23.12-6.38 22.4-5.7 21.57-5.33 20.75-4.95 19.97-5 19.2-5.05 18.8-5.9L18.8-5.9Q18.3-7 18.25-8.3 18.2-9.6 18.3-11.15L18.3-11.15Q18.4-12.7 18.75-14.35 19.1-16 19.7-17.53 20.3-19.05 21.12-20.4 21.95-21.75 23-22.8L23-22.8 23.2-23Q23.35-23.15 23.5-23.15L23.5-23.15Q23.5-23.15 23.3-22.65L23.3-22.65Q21.85-19.95 20.85-17.07 19.85-14.2 19.65-11.25L19.65-11.25Q19.4-8 19.97-7 20.55-6 21.4-6.43 22.25-6.85 23.22-8.28 24.2-9.7 24.8-11.35L24.8-11.35Q25.35-12.85 25.97-14.45 26.6-16.05 27.12-17.68 27.65-19.3 27.92-20.85 28.2-22.4 28.05-23.75L28.05-23.75Q28.05-24 28.15-24L28.15-24Q28.2-24 28.2-23.95L28.2-23.95Q28.2-23.85 28.25-23.85L28.25-23.85Q28.3-23.8 28.3-23.75L28.3-23.75Q29.1-22.05 29.02-20.3 28.95-18.55 28.42-16.75 27.9-14.95 27.17-13.08 26.45-11.2 25.95-9.3L25.95-9.3Q25.65-8.1 25.5-6.78 25.35-5.45 25.45-4.15 25.55-2.85 26-1.68 26.45-0.5 27.3 0.3L27.3 0.3Q27.4 0.4 27.4 0.45L27.4 0.45Q27.4 0.55 27.27 0.53 27.15 0.5 27.05 0.45L27.05 0.45Q26.1 0.1 25.4-0.7 24.7-1.5 24.3-2.6ZM47.55-12.65L47.55-12.65Q46.85-9.65 46.6-6.4 46.35-3.15 47-0.1L47-0.1Q47.05 0 46.97 0.13 46.9 0.25 46.8 0L46.8 0Q45.95-1.65 45.62-3.35 45.3-5.05 45.3-6.73 45.3-8.4 45.55-10.1 45.8-11.8 46.2-13.45L46.2-13.45Q46.25-13.65 46.4-14.28 46.55-14.9 46.62-15.53 46.7-16.15 46.6-16.5 46.5-16.85 46-16.5L46-16.5Q44.85-15.65 43.87-14.38 42.9-13.1 42.3-11.9L42.3-11.9Q42.25-11.8 42.07-11.33 41.9-10.85 41.72-10.3 41.55-9.75 41.4-9.22 41.25-8.7 41.2-8.55L41.2-8.55Q40.8-7 40.2-5.6 39.6-4.2 39.2-3L39.2-3Q39.05-2.5 39-2.55L39-2.55Q38.75-2.55 38.75-3L38.75-3Q38.5-5.45 39.17-7.73 39.85-10 40.65-12.4L40.65-12.4Q41.15-13.95 41.57-15.48 42-17 41.95-18.85L41.95-18.85Q41.9-20.15 42.92-21.4 43.95-22.65 46-23.5L46-23.5Q47.2-24 48.25-23.95 49.3-23.9 50.2-23.5 51.1-23.1 51.8-22.35 52.5-21.6 52.95-20.7L52.95-20.7Q53.25-21.25 53.85-21.88 54.45-22.5 55.27-22.95 56.1-23.4 57.12-23.63 58.15-23.85 59.4-23.65L59.4-23.65Q60.3-23.5 60.97-23.05 61.65-22.6 62.17-22.03 62.7-21.45 63-20.85 63.3-20.25 63.45-19.85L63.45-19.85Q64-18.2 64.02-16.15 64.05-14.1 63.6-12.45L63.6-12.45Q62.85-9.75 61.82-7.65 60.8-5.55 60.45-3.9L60.45-3.9Q60.3-3.35 60.25-3.35L60.25-3.35Q60.05-3.35 60.02-3.55 60-3.75 59.95-3.95L59.95-3.95Q59.85-5 60.22-6.63 60.6-8.25 61.1-10.13 61.6-12 62-13.95 62.4-15.9 62.35-17.57 62.3-19.25 61.6-20.5 60.9-21.75 59.2-22.2L59.2-22.2Q57.85-22.55 56.82-22.23 55.8-21.9 55.1-21.5L55.1-21.5Q54.05-20.8 53.75-20.03 53.45-19.25 53.45-18.55L53.45-18.55Q54.3-20.1 55.7-21.03 57.1-21.95 59-21.35L59-21.35Q60.25-20.95 60.77-19.85 61.3-18.75 61.35-17.4 61.4-16.05 61.07-14.7 60.75-13.35 60.3-12.45L60.3-12.45Q60.25-12.35 60.05-11.98 59.85-11.6 59.6-11.65L59.6-11.65Q59.55-11.65 59.57-12.05 59.6-12.45 59.6-12.65L59.6-12.65Q59.75-13.25 59.8-14.05 59.85-14.85 59.82-15.7 59.8-16.55 59.7-17.35 59.6-18.15 59.4-18.7L59.4-18.7Q59.15-19.4 58.62-19.63 58.1-19.85 57.5-19.75 56.9-19.65 56.32-19.35 55.75-19.05 55.35-18.7L55.35-18.7Q54.25-17.75 54-16.98 53.75-16.2 53.6-15.2L53.6-15.2Q54.2-16.2 55.07-17.07 55.95-17.95 56.8-18.5L56.8-18.5Q57.25-18.7 57.57-18.65 57.9-18.6 58.12-18.38 58.35-18.15 58.45-17.82 58.55-17.5 58.6-17.25L58.6-17.25Q58.75-15.6 58.47-14.35 58.2-13.1 57.82-11.78 57.45-10.45 57.22-8.83 57-7.2 57.3-4.8L57.3-4.8Q57.55-3.05 58.35-1.65 59.15-0.25 60.35 0.1L60.35 0.1Q60.7 0.2 60.52 0.25 60.35 0.3 60.25 0.3L60.25 0.3Q59.35 0.2 58.55-0.4 57.75-1 57.12-1.9 56.5-2.8 56.1-3.9 55.7-5 55.65-6.1L55.65-6.1Q55.5-8.35 55.92-10.38 56.35-12.4 56.75-13.85L56.75-13.85Q56.85-14.25 56.97-14.88 57.1-15.5 57.07-15.95 57.05-16.4 56.75-16.48 56.45-16.55 55.75-15.9L55.75-15.9Q54.75-15 54-13.95 53.25-12.9 52.9-11.6L52.9-11.6Q51.75-7.45 49.6-3.65L49.6-3.65Q49.5-3.45 49.35-3.28 49.2-3.1 49.15-3.15L49.15-3.15Q49.05-3.15 49.1-3.4 49.15-3.65 49.2-3.9L49.2-3.9Q49.5-5.65 49.95-7.3 50.4-8.95 50.82-10.68 51.25-12.4 51.57-14.23 51.9-16.05 51.95-18.15L51.95-18.15Q51.85-18.85 51.67-19.6 51.5-20.35 50.65-21.35L50.65-21.35Q49.65-22.45 48.3-22.5 46.95-22.55 46.1-22.25L46.1-22.25Q45.55-22.1 44.92-21.7 44.3-21.3 43.77-20.75 43.25-20.2 42.92-19.48 42.6-18.75 42.75-17.9L42.75-17.9Q43.3-18.9 44.02-19.85 44.75-20.8 45.9-21.3L45.9-21.3Q46.25-21.45 46.8-21.58 47.35-21.7 47.95-21.73 48.55-21.75 49.15-21.55 49.75-21.35 50.2-20.8L50.2-20.8Q51-19.8 51.07-19 51.15-18.2 51.1-17.4L51.1-17.4Q51-15.95 50.65-14.68 50.3-13.4 49.75-12.25L49.75-12.25Q49.7-12.1 49.5-11.78 49.3-11.45 49.2-11.45L49.2-11.45Q49.1-11.5 49.07-11.88 49.05-12.25 49.15-12.4L49.15-12.4Q49.2-12.95 49.3-14.03 49.4-15.1 49.42-16.28 49.45-17.45 49.3-18.43 49.15-19.4 48.65-19.8L48.65-19.8Q48.2-20.15 47.3-20 46.4-19.85 45.7-19.3L45.7-19.3Q45-18.75 44.52-18.25 44.05-17.75 43.75-17.23 43.45-16.7 43.22-16.07 43-15.45 42.85-14.6L42.85-14.6Q43.45-15.75 44.25-16.75 45.05-17.75 46.2-18.45L46.2-18.45Q47-19 47.45-18.9 47.9-18.8 48.07-18.35 48.25-17.9 48.22-17.2 48.2-16.5 48.15-15.9L48.15-15.9Q48.05-15.1 47.9-14.25 47.75-13.4 47.55-12.65ZM61.85 0.1L61.85 0.1Q61.85 0.1 61.6 0.1L61.6 0.1Q61.5 0.1 61.35 0.05L61.35 0.05Q60.65-0.1 59.85-0.58 59.05-1.05 58.5-2.35L58.5-2.35Q58.3-2.85 58.2-3.65 58.1-4.45 58.1-5.2 58.1-5.95 58.2-6.5 58.3-7.05 58.5-7L58.5-7Q58.55-7 58.62-6.78 58.7-6.55 58.75-6.25 58.8-5.95 58.85-5.65 58.9-5.35 58.9-5.2L58.9-5.2Q59-4.5 59.15-3.83 59.3-3.15 59.55-2.6L59.55-2.6Q59.8-1.85 60.47-1.03 61.15-0.2 61.7-0.1L61.7-0.1Q61.95 0 61.85 0.1ZM48.4 0L48.4 0Q48.5 0.35 48.4 0.35L48.4 0.35Q48.15 0.35 48 0.1L48 0.1Q47.75-0.2 47.5-0.78 47.25-1.35 47.3-2.75L47.3-2.75Q47.3-3.3 47.4-4.08 47.5-4.85 47.62-5.53 47.75-6.2 47.9-6.65 48.05-7.1 48.25-7.05L48.25-7.05Q48.3-7.05 48.32-6.83 48.35-6.6 48.37-6.3 48.4-6 48.4-5.73 48.4-5.45 48.4-5.35L48.4-5.35Q48.4-4.55 48.35-3.93 48.3-3.3 48.3-2.6L48.3-2.6Q48.3-1.65 48.3-1 48.3-0.35 48.4 0ZM41-16.6L41-16.6Q40.45-14.7 39.52-12.85 38.6-11 38-9.3L38-9.3Q37.95-9.2 37.82-8.93 37.7-8.65 37.5-8.7L37.5-8.7Q37.4-8.75 37.37-9.03 37.35-9.3 37.35-9.45L37.35-9.45Q37.35-10.25 37.62-11.58 37.9-12.9 38.2-13.75L38.2-13.75Q38.3-14.05 38.57-15.28 38.85-16.5 39.07-17.95 39.3-19.4 39.37-20.75 39.45-22.1 39.1-22.7L39.1-22.7Q38.9-23.05 39.1-23.05L39.1-23.05Q39.25-23.05 39.5-22.8L39.5-22.8Q40.1-22.25 40.47-21.45 40.85-20.65 41.02-19.78 41.2-18.9 41.17-18.05 41.15-17.2 41-16.6ZM37.7 0.05L37.7 0.05Q36.15-1 35.32-2.25 34.5-3.5 34.2-4.85 33.9-6.2 33.97-7.6 34.05-9 34.35-10.35L34.35-10.35Q34.75-12.15 35.37-13.93 36-15.7 36.57-17.38 37.15-19.05 37.47-20.65 37.8-22.25 37.55-23.7L37.55-23.7Q37.55-23.9 37.6-23.9L37.6-23.9Q37.7-23.9 37.85-23.65L37.85-23.65Q38.75-22.05 38.7-20.35 38.65-18.65 38.15-16.88 37.65-15.1 36.92-13.28 36.2-11.45 35.8-9.6L35.8-9.6Q35.55-8.45 35.47-7.18 35.4-5.9 35.65-4.65 35.9-3.4 36.47-2.2 37.05-1 38.05-0.05L38.05-0.05Q38.25 0.05 38.15 0.15L38.15 0.15Q38.05 0.25 37.92 0.18 37.8 0.1 37.7 0.05ZM39.6 0.25L39.6 0.25Q39.45 0.35 39.2 0.1L39.2 0.1Q38.65-0.3 38.12-0.75 37.6-1.2 37.1-2.2L37.1-2.2Q36.9-2.55 36.8-3.1 36.7-3.65 36.7-4.17 36.7-4.7 36.77-5.05 36.85-5.4 37-5.4L37-5.4Q37.2-5.35 37.32-4.85 37.45-4.35 37.55-4.2L37.55-4.2Q37.75-3.65 37.9-3.18 38.05-2.7 38.25-2.25L38.25-2.25Q38.55-1.55 38.85-1.05 39.15-0.55 39.55-0.05L39.55-0.05Q39.6 0 39.65 0.1 39.7 0.2 39.6 0.25ZM84.34-17.6L84.34-17.6Q83.94-15.6 82.99-13.6 82.04-11.6 81.19-9.85L81.19-9.85Q81.14-9.75 80.97-9.5 80.79-9.25 80.69-9.25L80.69-9.25Q80.54-9.3 80.54-9.58 80.54-9.85 80.54-9.95L80.54-9.95Q80.59-10.4 80.72-11.03 80.84-11.65 80.94-12.33 81.04-13 81.17-13.63 81.29-14.25 81.44-14.75L81.44-14.75Q81.89-16.45 82.19-17.68 82.49-18.9 82.64-19.9 82.79-20.9 82.82-21.8 82.84-22.7 82.69-23.75L82.69-23.75Q82.64-24.15 82.74-24.25L82.74-24.25Q82.84-24.3 82.99-24.15 83.14-24 83.24-23.85L83.24-23.85Q84.09-22.5 84.39-20.88 84.69-19.25 84.34-17.6ZM85.34-21.25L85.54-20.95Q86.19-20 86.19-18.45 86.19-16.9 85.89-15.28 85.59-13.65 85.14-12.15 84.69-10.65 84.49-9.75L84.49-9.75Q84.09-8 83.39-6.25 82.69-4.5 82.19-3.15L82.19-3.15Q82.14-3 82.04-2.83 81.94-2.65 81.84-2.65L81.84-2.65Q81.74-2.65 81.74-2.85 81.74-3.05 81.74-3.2L81.74-3.2Q81.59-5.95 82.34-8.58 83.09-11.2 83.94-13.9L83.94-13.9Q84.44-15.55 84.89-17.28 85.34-19 85.29-21.05L85.29-21.05Q85.29-21.25 85.34-21.25L85.34-21.25ZM80.84-21.8L80.84-21.8Q77.79-20.55 75.67-18.23 73.54-15.9 72.39-13L72.39-13Q71.89-11.7 71.64-10.68 71.39-9.65 71.24-8.45L71.24-8.45Q71.19-8.2 71.39-7.95 71.59-7.7 71.79-7.95L71.79-7.95Q72.69-9.05 74.09-10.75 75.49-12.45 76.89-14.35 78.29-16.25 79.42-18.2 80.54-20.15 80.84-21.8ZM77.49-4.85L77.49-4.85Q76.74-3.8 76.04-2.9 75.34-2 74.49-1.33 73.64-0.65 72.59-0.25 71.54 0.15 70.19 0.2L70.19 0.2Q67.94 0.3 66.77-0.95 65.59-2.2 65.14-4 64.69-5.8 64.82-7.73 64.94-9.65 65.34-10.9L65.34-10.9Q65.89-12.65 66.67-14.23 67.44-15.8 68.32-17.07 69.19-18.35 70.12-19.28 71.04-20.2 71.94-20.7L71.94-20.7Q71.99-20.7 72.17-20.8 72.34-20.9 72.34-20.75L72.34-20.75Q72.39-20.75 72.29-20.6 72.19-20.45 72.09-20.35L72.09-20.35Q69.49-17.65 67.97-14.25 66.44-10.85 66.24-7.25L66.24-7.25Q66.19-6.35 66.32-5.3 66.44-4.25 66.82-3.33 67.19-2.4 67.89-1.78 68.59-1.15 69.79-1.15L69.79-1.15Q70.74-1.15 71.54-1.48 72.34-1.8 73.04-2.33 73.74-2.85 74.32-3.48 74.89-4.1 75.34-4.65L75.34-4.65Q76.34-5.9 77.19-7.25L77.19-7.25Q77.19-8.25 77.32-9.2 77.44-10.15 77.69-11.1L77.69-11.1Q77.84-11.8 77.97-12.23 78.09-12.65 78.22-13.03 78.34-13.4 78.47-13.83 78.59-14.25 78.84-14.95L78.84-14.95Q78.04-13.55 77.27-12.33 76.49-11.1 75.62-9.98 74.74-8.85 73.82-7.78 72.89-6.7 71.79-5.6L71.79-5.6Q70.94-4.75 70.39-5.05 69.84-5.35 69.74-6.45L69.74-6.45Q69.64-8.15 69.92-9.75 70.19-11.35 70.89-13.1L70.89-13.1Q71.54-14.7 72.52-16.2 73.49-17.7 74.77-18.93 76.04-20.15 77.59-21.03 79.14-21.9 80.89-22.2L80.89-22.2Q80.99-22.75 81.07-23.15 81.14-23.55 81.19-23.95L81.19-23.95Q81.29-24.5 81.29-24.5L81.29-24.5Q81.39-24.55 81.52-24.4 81.64-24.25 81.74-24L81.74-24Q82.34-22.35 82.14-20.7 81.94-19.05 81.42-17.35 80.89-15.65 80.19-13.88 79.49-12.1 79.04-10.3L79.04-10.3Q78.44-7.75 78.72-5.03 78.99-2.3 80.84-0.1L80.84-0.1Q80.99 0.1 80.99 0.1L80.99 0.1Q80.94 0.15 80.69 0L80.69 0Q79.24-0.9 78.52-2.18 77.79-3.45 77.49-4.85ZM79.24-22.55L79.24-22.55Q79.34-22.45 79.22-22.4 79.09-22.35 78.69-22.25L78.69-22.25Q78.04-22.05 77.12-21.5 76.19-20.95 75.17-20.1 74.14-19.25 73.14-18.13 72.14-17 71.39-15.7L71.39-15.7Q70.64-14.35 70.12-13.05 69.59-11.75 69.27-10.68 68.94-9.6 68.79-8.83 68.64-8.05 68.64-7.75L68.64-7.75Q68.64-7 68.64-6.18 68.64-5.35 68.84-4.7 69.04-4.05 69.54-3.7 70.04-3.35 71.04-3.5L71.04-3.5Q71.09-3.5 71.29-3.58 71.49-3.65 71.69-3.73 71.89-3.8 72.07-3.85 72.24-3.9 72.29-3.9L72.29-3.9Q72.34-3.8 72.22-3.65 72.09-3.5 71.89-3.33 71.69-3.15 71.52-3 71.34-2.85 71.29-2.8L71.29-2.8Q70.04-2.05 69.19-2.35 68.34-2.65 67.87-3.48 67.39-4.3 67.22-5.43 67.04-6.55 67.09-7.45L67.09-7.45Q67.19-9.2 67.64-10.93 68.09-12.65 68.79-14.4L68.79-14.4Q69.34-15.75 70.44-17.18 71.54-18.6 72.92-19.8 74.29-21 75.79-21.78 77.29-22.55 78.69-22.6L78.69-22.6Q79.19-22.6 79.24-22.55ZM82.19-0.1L82.19-0.1Q82.29 0.05 82.24 0.1L82.24 0.1Q82.09 0.1 81.84 0L81.84 0Q81.69-0.1 81.04-0.6 80.39-1.1 80.09-2.2L80.09-2.2Q79.99-2.6 79.92-3.23 79.84-3.85 79.84-4.4 79.84-4.95 79.92-5.35 79.99-5.75 80.14-5.75L80.14-5.75Q80.29-5.75 80.47-5.15 80.64-4.55 80.69-4.4L80.69-4.4Q80.84-3.7 80.97-3.18 81.09-2.65 81.24-2.2L81.24-2.2Q81.44-1.65 81.77-0.95 82.09-0.25 82.19-0.1ZM94.34-16.5L94.34-16.5Q94.49-17.15 94.52-18 94.54-18.85 94.39-19.75 94.24-20.65 93.87-21.48 93.49-22.3 92.89-22.9L92.89-22.9Q92.59-23.1 92.54-23.1L92.54-23.1Q92.34-23.1 92.54-22.8L92.54-22.8Q92.84-22.15 92.77-20.78 92.69-19.4 92.44-17.93 92.19-16.45 91.92-15.28 91.64-14.1 91.59-13.85L91.59-13.85Q91.24-12.95 90.97-11.6 90.69-10.25 90.69-9.4L90.69-9.4Q90.64-9.3 90.64-9 90.64-8.7 90.79-8.65L90.79-8.65Q90.84-8.65 90.99-8.9 91.14-9.15 91.24-9.25L91.24-9.25Q92.14-10.85 92.97-12.75 93.79-14.65 94.34-16.5ZM94.54-8.95L94.54-8.95Q94.74-9.85 95.19-11.28 95.64-12.7 95.94-14.23 96.24-15.75 96.24-17.23 96.24-18.7 95.64-19.65L95.64-19.65Q95.44-19.85 95.34-19.85L95.34-19.85Q95.24-19.85 95.29-19.65L95.29-19.65Q95.29-17.75 94.87-16.13 94.44-14.5 93.94-12.95L93.94-12.95Q93.09-10.4 92.39-7.98 91.69-5.55 91.79-3L91.79-3Q91.79-2.85 91.82-2.68 91.84-2.5 91.99-2.5L91.99-2.5Q92.09-2.5 92.14-2.6 92.19-2.7 92.29-2.9L92.29-2.9Q92.79-4.1 93.44-5.73 94.09-7.35 94.54-8.95ZM90.99 0L90.99 0Q90.04-1 89.54-2.23 89.04-3.45 88.84-4.73 88.64-6 88.74-7.3 88.84-8.6 89.14-9.75L89.14-9.75Q89.59-11.55 90.29-13.35 90.99-15.15 91.49-16.93 91.99-18.7 92.07-20.43 92.14-22.15 91.34-23.8L91.34-23.8Q91.19-24.05 91.14-24.05L91.14-24.05Q91.09-24.05 91.09-23.98 91.09-23.9 91.14-23.85L91.14-23.85Q91.29-22.35 90.94-20.75 90.59-19.15 90.04-17.48 89.49-15.8 88.82-14.03 88.14-12.25 87.69-10.4L87.69-10.4Q87.34-9.05 87.22-7.65 87.09-6.25 87.39-4.88 87.69-3.5 88.49-2.25 89.29-1 90.79 0.05L90.79 0.05Q90.89 0.15 91.04 0.18 91.19 0.2 90.99 0ZM91.39-1.9L91.39-1.9Q91.24-2.3 91.07-2.9 90.89-3.5 90.79-4.05L90.79-4.05Q90.69-4.25 90.54-4.8 90.39-5.35 90.29-5.35L90.29-5.35Q90.09-5.35 90.02-5 89.94-4.65 89.94-4.13 89.94-3.6 90.02-3.03 90.09-2.45 90.24-2.05L90.24-2.05Q90.54-1.05 90.97-0.65 91.39-0.25 92.09 0L92.09 0Q92.39 0.15 92.54 0.15L92.54 0.15Q92.59 0.15 92.57 0.08 92.54 0 92.49 0L92.49 0Q92.14-0.4 91.87-0.85 91.59-1.3 91.39-1.9ZM95.29-27.75L95.29-27.75Q95.04-27.75 94.52-27.83 93.99-27.9 93.99-28.3L93.99-28.3Q93.99-28.45 94.44-28.68 94.89-28.9 95.44-29.33 95.99-29.75 96.44-30.43 96.89-31.1 96.89-32.15L96.89-32.15Q96.89-33.45 96.39-34.1L96.39-34.1Q96.29-34.25 96.14-34.43 95.99-34.6 96.04-34.65L96.04-34.65Q96.14-34.65 96.27-34.58 96.39-34.5 96.44-34.45L96.44-34.45Q97.44-33.9 97.97-33.02 98.49-32.15 98.49-31.35L98.49-31.35Q98.49-29.75 97.74-28.75 96.99-27.75 95.29-27.75ZM93.44-29.75L93.44-29.75Q92.84-29.5 92.84-30.05L92.84-30.05Q92.84-30.45 93.14-30.83 93.44-31.2 93.72-31.65 93.99-32.1 94.09-32.68 94.19-33.25 93.79-34.1L93.79-34.1Q93.69-34.35 93.44-34.65 93.19-34.95 93.29-35L93.29-35Q93.39-35.05 93.72-34.93 94.04-34.8 94.14-34.75L94.14-34.75Q94.99-34.35 95.42-33.55 95.84-32.75 95.84-32.15L95.84-32.15Q95.84-31.2 95.07-30.58 94.29-29.95 93.44-29.75ZM91.99-32.45L91.99-32.45Q91.99-32.7 92.14-33.02 92.29-33.35 92.64-33.35L92.64-33.35Q92.89-33.35 93.04-33.02 93.19-32.7 93.19-32.45L93.19-32.45Q93.19-32.25 93.04-31.93 92.89-31.6 92.64-31.6L92.64-31.6Q92.29-31.6 92.14-31.9 91.99-32.2 91.99-32.45ZM103.69-16.65L103.69-16.65Q103.29-14.95 102.56-13.08 101.84-11.2 100.94-9.6L100.94-9.6Q100.94-9.5 100.81-9.28 100.69-9.05 100.49-9.05L100.49-9.05Q100.39-9.05 100.36-9.35 100.34-9.65 100.39-9.75L100.39-9.75Q100.39-10.55 100.59-11.88 100.79-13.2 101.09-14.05L101.09-14.05Q101.19-14.35 101.41-15.5 101.64-16.65 101.81-18.07 101.99-19.5 102.01-20.83 102.04-22.15 101.69-22.8L101.69-22.8 101.69-23Q101.89-23.15 102.14-22.9L102.14-22.9Q102.79-22.35 103.16-21.55 103.54-20.75 103.71-19.88 103.89-19 103.86-18.15 103.84-17.3 103.69-16.65ZM105.64-16.85L105.64-16.85Q106.19-17.55 106.69-17.85 107.19-18.15 107.69-18.35L107.69-18.35Q107.74-18.35 107.94-18.4 108.14-18.45 108.24-18.3L108.24-18.3Q108.34-18.15 108.19-17.95 108.04-17.75 107.94-17.65L107.94-17.65Q107.59-17.3 107.16-16.88 106.74-16.45 106.39-16.05L106.39-16.05Q105.89-15.5 105.59-14.78 105.29-14.05 105.14-13.3L105.14-13.3Q105.99-14.2 106.76-15 107.54-15.8 108.44-16.5L108.44-16.5Q109.59-17.35 110.44-18.7 111.29-20.05 111.64-22.65L111.64-22.65Q111.74-22.9 111.89-22.95 112.04-23 112.04-22.6L112.04-22.6Q112.19-19.7 111.44-18 110.69-16.3 109.19-15.15L109.19-15.15Q108.39-14.55 107.59-13.85 106.79-13.15 106.06-12.3 105.34-11.45 104.74-10.3 104.14-9.15 103.69-7.65L103.69-7.65Q103.34-6.5 102.99-5.48 102.64-4.45 102.24-3.5L102.24-3.5Q102.14-3.15 101.94-3.15L101.94-3.15Q101.79-3.2 101.79-3.65L101.79-3.65Q101.54-6.05 102.11-8.43 102.69-10.8 103.49-13.35L103.49-13.35Q103.84-14.6 104.31-15.85 104.79-17.1 104.74-18.7L104.74-18.7Q104.74-19.25 105.19-19.85 105.64-20.45 106.29-20.98 106.94-21.5 107.64-21.88 108.34-22.25 108.84-22.4L108.84-22.4Q109.29-22.55 109.29-22.35 109.29-22.15 108.99-21.85L108.99-21.85Q107.94-20.9 106.86-19.6 105.79-18.3 105.64-16.85ZM101.29-0.05L101.29-0.05Q101.24 0 101.21-0.03 101.19-0.05 100.94-0.2L100.94-0.2Q99.44-1.3 98.59-2.6 97.74-3.9 97.36-5.28 96.99-6.65 97.04-8.03 97.09-9.4 97.39-10.7L97.39-10.7Q97.79-12.45 98.36-14.18 98.94-15.9 99.44-17.53 99.94-19.15 100.19-20.73 100.44-22.3 100.19-23.75L100.19-23.75Q100.19-23.85 100.34-23.9L100.34-23.9Q100.39-23.9 100.44-23.83 100.49-23.75 100.54-23.7L100.54-23.7Q101.49-22.1 101.49-20.43 101.49-18.75 101.04-17.03 100.59-15.3 99.91-13.53 99.24-11.75 98.84-9.95L98.84-9.95Q98.34-7.65 98.76-5.05 99.19-2.45 101.09-0.4L101.09-0.4Q101.19-0.25 101.29-0.2 101.39-0.15 101.29-0.05ZM102.79 0L102.79 0Q102.69 0 102.59-0.05L102.59-0.05 102.39-0.15Q101.69-0.6 101.14-1.13 100.59-1.65 100.19-2.65L100.19-2.65Q100.04-3 99.94-3.58 99.84-4.15 99.81-4.65 99.79-5.15 99.86-5.5 99.94-5.85 100.14-5.8L100.14-5.8Q100.29-5.8 100.46-5.4 100.64-5 100.74-4.6L100.74-4.6Q100.84-4.05 100.96-3.55 101.09-3.05 101.29-2.65L101.29-2.65Q101.84-1.4 102.74-0.25L102.74-0.25Q102.84 0 102.79 0ZM110.94-22.45L110.94-22.45Q110.94-21.4 110.34-20.6 109.74-19.8 108.89-19.25L108.89-19.25Q108.74-19.15 108.69-19.28 108.64-19.4 108.64-19.45L108.64-19.45Q108.64-19.75 108.89-20.18 109.14-20.6 109.46-21.08 109.79-21.55 110.09-22.05 110.39-22.55 110.49-22.95L110.49-22.95Q110.64-23.2 110.79-22.95 110.94-22.7 110.94-22.45Z" opacity="1" transform="matrix(1,0,0,1,0,0)" fill="#dedede" class="wordmark-text-0" data-fill-palette-color="quaternary" id="text-0"></path></svg></g></svg></g></svg></g></svg></g><g transform="matrix(1,0,0,1,47.02913322834267,0)"><svg viewBox="0 0 119.10017477047177 92.51877349832361" height="92.51877349832361" width="119.10017477047177"><g><svg xmlns="http://www.w3.org/2000/svg" xmlns:xlink="http://www.w3.org/1999/xlink" version="1.1" x="0" y="0" viewBox="1.2000000476837158 11.100000381469727 92.30000305175781 71.70000457763672" enable-background="new 0 0 95 95" xml:space="preserve" height="92.51877349832361" width="119.10017477047177" class="icon-icon-0" data-fill-palette-color="quaternary" id="icon-0"><path d="M93.5 36C93.4 36.7 93.2 37.4 93.1 38.2 92.6 40.5 91.7 42.6 90.3 44.5 88.1 47.2 85.2 48.8 81.8 49.5 80.5 49.7 79.1 49.9 77.8 49.9H5.2C3.6 49.9 2.4 49.6 1.7 48.1V46.4C2.1 45.6 2.6 44.9 3.6 44.7 3.9 44.6 4.2 44.6 4.5 44.6H78.4C80.9 44.6 83.2 43.8 85.1 42.2 86.8 40.8 87.6 38.9 87.9 36.8 88.1 35.6 88.2 34.3 88.2 33.1 88.2 30.9 87.6 28.8 86.1 27.2 84.9 25.9 83.3 25.3 81.4 25.6 80.1 25.8 79 26.2 78 27 76.6 28.1 75.9 29.5 75.6 31.1 75.4 32.3 75.4 33.6 75.6 34.8 75.8 36.4 77 37 78.6 36.3 80 35.7 80.3 35 80.2 33.4 80.1 32.1 80.7 31 82.1 30.6S84.9 31 85.3 32.2C86 34.7 85.5 37 83.7 39 81.8 41.1 79.3 42 76.5 41.8 74.2 41.6 72.4 40.4 71.3 38.4 70.5 36.9 70.2 35.3 70.1 33.6 70.1 31.1 70.4 28.8 71.5 26.6 73.3 23.3 76 21.2 79.7 20.4 82.9 19.7 85.8 20.4 88.4 22.3 90.9 24 92.2 26.6 92.9 29.5 93.1 30.2 93.2 30.9 93.3 31.6 93.5 33.1 93.5 34.5 93.5 36" fill="#dedede" data-fill-palette-color="quaternary"></path><path d="M1.7 55C2.4 53.5 3.7 53.2 5.2 53.2H61.2C64.8 53.2 68.1 54.3 70.9 56.6 73.2 58.5 74.5 60.9 75.4 63.7 76.1 66.1 76.2 68.5 76 71 75.8 74.6 74.5 77.8 71.7 80.2 70.1 81.6 68.2 82.5 66.1 82.7 66 82.7 66 82.8 65.9 82.8H63.3C62.4 82.6 61.6 82.4 60.7 82.1 56.4 80.5 54 77.4 53 73.1 52.5 70.9 52.5 68.6 53.1 66.4 53.7 63.9 56 61.7 58.5 61.4 62 60.9 64.8 62.1 66.8 64.9 68.1 66.6 68.3 68.7 67.8 70.7 67.5 71.9 66.2 73 64.4 72.4 63.3 72.1 62.3 70.9 62.7 69.3 62.9 68.5 62.6 67.7 61.8 67.3 61.2 67 60.5 66.6 59.8 66.5 58.7 66.4 58 67.3 57.8 68.7 57.7 70.3 57.7 72 58.4 73.5 59.3 75.6 60.9 76.9 63.1 77.4 65.2 77.8 66.9 77.2 68.4 75.8 69.5 74.7 70.1 73.2 70.3 71.7 70.6 69.4 70.5 67 69.8 64.7 68.9 61.9 67 60.1 64.3 59.2 62.9 58.7 61.4 58.5 59.8 58.5H4.1C2.8 58.5 2 58 1.4 56.9 1.4 56.8 1.3 56.8 1.2 56.7 1.7 56.1 1.7 55.5 1.7 55" fill="#dedede" data-fill-palette-color="quaternary"></path><path d="M53.2 11.1C54.2 11.4 55.2 11.7 56.2 12.1 58.4 13 60.1 14.6 61.2 16.7 62.3 18.7 62.9 20.9 63 23.3 63.2 26.9 62.7 30.3 61 33.5 59.5 36.3 57.2 38.2 54.3 39.4 51.7 40.5 49.1 40.8 46.3 40.8H4.8C3.3 40.8 2.2 40.3 1.6 38.9V37.4C2.2 36.1 3.1 35.6 4.6 35.6H47.6C50.4 35.6 53 34.8 55 32.8 56.3 31.6 57.1 29.9 57.4 28.2 57.6 27.2 57.8 26.1 57.8 25 57.8 22.9 57.5 20.7 56.2 18.9 54 16 50.5 15.8 47.8 17.8 46.1 19 45.3 20.7 45.1 22.8 45 23.8 45 24.8 45.1 25.7 45.3 27.2 46.2 27.8 47.6 27.5 48.7 27.2 49.6 26.7 49.8 25.5 49.9 25 49.8 24.6 49.8 24.1 49.7 22.8 50.8 21.8 52.2 21.6 53.4 21.5 54.7 22.4 55 23.5 56 27.5 53.5 31 50.2 32.2 49.3 32.5 48.2 32.8 47.3 32.9 45 32.9 42.9 32.1 41.5 30.2 40.3 28.6 39.9 26.7 39.8 24.7 39.7 22.2 40.1 19.9 41.3 17.7 43.2 14.3 46 12.1 49.9 11.5 50 11.5 50 11.4 50 11.4 51.1 11.1 52.1 11.1 53.2 11.1" fill="#dedede" data-fill-palette-color="quaternary"></path></svg></g></svg></g><g></g></svg></g></svg></g></svg></g></svg></g><defs></defs></svg><rect width="342.85155851775386" height="342.85155851775386" fill="none" stroke="none" visibility="hidden"></rect></g></svg></g></g></g></g><rect width="225.1171785304831" height="78.94558279038898" x="208.44139465269075" y="215.688731798466" rx="2.5" ry="2.5" fill="transparent" class="logo-element-hover-target"></rect><rect width="131.10019752292362" height="104.51876268969322" x="255.44991788309483" y="107.36569967151598" rx="2.5" ry="2.5" fill="transparent" class="logo-element-hover-target"></rect></svg>